<svg xmlns="http://www.w3.org/2000/svg" viewBox="0 0 128 128" width="128" height="128">
  <defs>
    <linearGradient id="dock-bg" x1="0%" y1="0%" x2="100%" y2="100%">
      <stop offset="0%" style="stop-color:#1a1d26"/>
      <stop offset="100%" style="stop-color:#0a0a0c"/>
    </linearGradient>
    <linearGradient id="dock-accent" x1="0%" y1="0%" x2="100%" y2="100%">
      <stop offset="0%" style="stop-color:#2dd4ff"/>
      <stop offset="100%" style="stop-color:#0891b2"/>
    </linearGradient>
  </defs>
  
  <!-- Background -->
  <rect width="128" height="128" rx="28" fill="url(#dock-bg)"/>
  <rect x="2" y="2" width="124" height="124" rx="26" fill="none" stroke="#2dd4ff" stroke-width="2" opacity="0.4"/>
  
  <!-- Wrench -->
  <g transform="translate(64,64) rotate(-45)">
    <rect x="-8" y="-30" width="16" height="45" rx="3" fill="url(#dock-accent)"/>
    <path d="M-20,-30 L-8,-30 L-8,-42 L-4,-46 L4,-46 L8,-42 L8,-30 L20,-30 L20,-20 L8,-20 L8,-5 L-8,-5 L-8,-20 L-20,-20 Z" 
          fill="url(#dock-accent)"/>
  </g>
  
  <!-- Phone -->
  <g transform="translate(64,64) rotate(45)" opacity="0.7">
    <rect x="-10" y="-22" width="20" height="34" rx="3" fill="none" stroke="#2dd4ff" stroke-width="2"/>
  </g>
</svg>
